<?xml version="1.0" standalone="no"?>
<!DOCTYPE svg PUBLIC "-//W3C//DTD SVG 20010904//EN"
 "http://www.w3.org/TR/2001/REC-SVG-20010904/DTD/svg10.dtd">
<svg version="1.0" xmlns="http://www.w3.org/2000/svg"
 width="400.000000pt" height="400.000000pt" viewBox="0 0 400.000000 400.000000"
 preserveAspectRatio="xMidYMid meet">

<g transform="translate(0.000000,400.000000) scale(0.100000,-0.100000)"
fill="#000000" stroke="none">
<path d="M2386 3761 c-12 -19 7 -41 35 -41 23 0 32 -7 48 -38 l20 -39 -48 -1
c-26 0 -67 -8 -92 -16 -24 -9 -53 -16 -64 -16 -11 0 -42 -12 -70 -25 -27 -14
-55 -25 -61 -25 -5 0 -31 -13 -57 -30 -47 -29 -90 -39 -101 -21 -7 11 -64 24
-94 21 -13 -1 -40 -13 -60 -26 -35 -24 -40 -25 -156 -19 -78 4 -139 2 -171 -5
-27 -7 -60 -14 -73 -16 -39 -8 -124 -60 -198 -122 -211 -178 -312 -459 -231
-642 4 -8 15 -37 25 -65 10 -27 29 -68 44 -90 25 -40 87 -95 106 -95 5 0 15
-7 22 -15 17 -20 69 -45 95 -45 11 0 26 -5 31 -10 10 -10 123 -54 169 -66 18
-5 34 -12 105 -43 14 -6 39 -20 55 -31 17 -11 41 -25 55 -32 14 -7 50 -31 80
-54 30 -24 67 -46 82 -49 31 -8 40 -26 32 -63 -10 -42 -11 -42 -76 -10 -37 18
-69 28 -82 24 -125 -33 -115 -27 -146 -90 -17 -33 -30 -72 -30 -89 0 -17 -11
-42 -27 -61 -14 -17 -36 -54 -49 -83 -21 -47 -26 -52 -66 -58 -46 -8 -103 -58
-143 -126 -31 -51 -28 -152 5 -199 21 -29 24 -43 21 -103 -5 -129 16 -176 96
-214 28 -13 36 -24 49 -72 13 -46 25 -65 72 -108 41 -39 54 -55 45 -64 -8 -8
-18 -7 -39 4 -34 17 -58 20 -179 20 -162 -1 -250 -41 -302 -137 -42 -78 -26
-124 55 -154 56 -20 417 -31 598 -17 l81 6 9 -33 c11 -37 71 -84 121 -94 52
-10 145 19 207 66 73 53 146 159 146 211 0 14 5 30 12 37 14 14 20 56 22 156
l2 79 38 4 c47 5 136 45 161 73 23 25 10 42 -59 77 -45 23 -59 25 -123 20 -71
-5 -83 -2 -64 19 15 14 30 184 20 212 -5 13 -7 27 -4 32 2 4 0 52 -5 106 -6
55 -13 126 -16 159 -3 32 -12 68 -20 79 -8 11 -14 28 -14 38 0 9 -7 32 -16 51
-15 31 -15 37 0 80 15 44 14 49 -5 94 -12 28 -18 57 -14 71 11 45 115 130 160
132 11 0 34 0 50 0 17 -1 49 -1 73 -1 30 0 42 -4 42 -14 0 -46 129 -133 174
-118 12 4 29 6 38 4 40 -5 142 30 190 67 118 89 169 135 184 165 9 17 22 39
28 47 17 21 38 88 44 135 8 77 3 280 -8 325 -6 25 -13 60 -14 78 -1 18 -8 38
-14 44 -7 7 -12 22 -12 33 0 12 -9 30 -20 40 -11 10 -19 23 -17 29 2 6 -9 40
-25 74 -15 35 -26 68 -23 73 3 4 -2 23 -12 41 -10 18 -25 51 -33 74 -8 23 -37
67 -65 99 -27 31 -65 75 -84 96 -18 21 -37 39 -42 39 -5 0 -45 21 -88 46 -79
45 -135 66 -179 66 -18 0 -28 10 -43 44 -28 67 -96 123 -113 95z m123 -178 c3
-2 5 -19 4 -38 -1 -44 15 -46 19 -2 3 31 5 32 42 30 37 -3 77 -19 194 -81 58
-31 171 -152 197 -212 9 -19 25 -52 36 -72 11 -21 18 -42 15 -47 -3 -5 3 -37
14 -71 11 -35 20 -73 20 -87 0 -13 6 -36 14 -51 8 -15 19 -54 26 -87 7 -33 16
-78 22 -100 5 -22 11 -87 12 -145 2 -162 -35 -272 -123 -358 -63 -62 -155
-132 -173 -132 -8 0 -18 -4 -24 -9 -5 -5 -47 -12 -93 -15 -81 -4 -85 -4 -111
23 -31 31 -50 86 -50 146 1 61 53 231 88 284 9 14 26 43 36 64 11 20 23 37 27
37 4 0 18 17 30 38 29 47 120 137 162 159 29 16 30 18 10 21 -13 2 -60 40
-106 85 -46 45 -118 114 -159 152 -74 70 -75 71 -74 120 1 72 -40 134 -111
169 -62 30 -91 32 -150 10 -34 -13 -53 -14 -101 -6 -66 12 -132 36 -132 50 0
47 318 152 410 134 14 -3 27 -7 29 -9z m-749 -157 c0 -8 -7 -19 -14 -26 -8 -6
-22 -34 -31 -61 -18 -52 -14 -104 8 -141 20 -33 110 -78 155 -78 55 0 141 34
171 68 13 15 37 42 52 60 22 24 34 31 51 27 20 -5 23 -11 20 -51 -6 -75 36
-144 115 -190 29 -16 39 -17 90 -6 44 9 66 21 98 52 27 26 47 39 57 35 9 -4
19 -2 23 4 4 7 32 -12 72 -46 88 -77 213 -202 213 -212 0 -4 -26 -35 -57 -68
-94 -97 -132 -148 -179 -240 -49 -97 -94 -233 -94 -287 0 -48 -27 -63 -82 -45
-28 9 -42 9 -50 1 -6 -6 -23 -9 -38 -6 -17 4 -31 0 -39 -10 -8 -9 -18 -16 -23
-16 -21 0 -80 -56 -105 -98 -31 -53 -62 -68 -162 -78 -73 -7 -73 -7 -62 15 22
40 10 83 -29 108 -19 12 -66 43 -104 70 l-69 48 59 7 c33 4 70 13 84 20 15 7
77 12 150 13 124 2 144 6 246 51 18 8 55 19 83 26 64 14 74 30 67 110 -6 65
-24 95 -50 85 -22 -9 -20 -34 4 -42 12 -4 20 -15 20 -28 0 -12 3 -31 6 -42 7
-28 -16 -55 -56 -65 -19 -4 -72 -22 -118 -39 -73 -27 -95 -30 -185 -30 -67 1
-119 -4 -152 -15 -95 -30 -265 -13 -306 30 -15 16 -34 24 -55 24 -19 0 -44 9
-61 24 -15 13 -43 31 -62 41 -48 24 -70 54 -71 93 0 38 -17 43 -26 6 -5 -18 0
-34 13 -52 37 -51 37 -53 6 -46 -83 21 -199 111 -235 185 -42 86 -78 199 -78
244 0 115 62 270 150 371 81 94 201 176 277 187 17 3 37 8 44 13 24 14 70 19
164 16 70 -3 95 -7 95 -16z m282 7 c24 -29 38 -72 38 -113 0 -53 -53 -115
-108 -124 -102 -18 -119 -18 -160 3 -72 37 -75 125 -7 199 32 35 37 37 112 43
43 3 85 6 94 7 9 1 22 -6 31 -15z m385 -58 c68 -40 111 -152 80 -211 -60 -115
-196 -124 -266 -17 -17 26 -31 59 -31 75 0 53 51 132 103 160 44 23 63 22 114
-7z m-195 -4 c4 -4 -2 -21 -15 -39 -19 -27 -26 -31 -52 -26 -37 8 -32 2 -40
48 l-8 38 54 -7 c30 -4 57 -10 61 -14z m-812 -971 c13 -8 13 -10 -2 -10 -9 0
-20 5 -23 10 -8 13 5 13 25 0z m724 -406 c17 -45 -9 -55 -84 -34 -24 7 -45 7
-69 -1 -27 -9 -35 -9 -42 2 -7 11 7 16 66 24 41 6 77 14 81 18 13 13 42 7 48
-9z m-204 -131 c0 -5 -7 -17 -15 -27 -8 -11 -15 -28 -15 -38 0 -12 -14 -24
-39 -34 -48 -19 -89 -94 -76 -141 5 -15 9 -51 10 -78 0 -29 10 -70 23 -96 l23
-47 -20 -78 c-11 -44 -22 -91 -25 -106 -6 -26 -9 -28 -49 -24 -23 3 -50 5 -59
5 -16 1 -16 3 3 22 20 20 20 22 5 38 -16 15 -18 14 -36 -9 -13 -17 -16 -28 -8
-37 7 -9 1 -11 -29 -7 -65 9 -64 9 -58 66 25 213 34 240 82 253 37 9 61 31 68
65 4 16 14 30 26 33 25 7 25 37 0 37 -43 0 -29 105 19 155 29 30 40 35 81 35
26 0 51 5 54 10 7 12 35 14 35 3z m-198 -35 c-17 -18 -24 -20 -34 -10 -10 10
-10 15 2 22 8 5 24 10 35 10 19 0 19 -1 -3 -22z m271 -19 c49 -22 60 -84 23
-124 -14 -15 -39 -65 -56 -113 -35 -97 -44 -112 -71 -112 -21 0 -61 56 -57 80
2 8 20 23 41 34 35 17 37 20 23 34 -8 8 -25 16 -37 17 -52 4 -47 66 7 101 25
17 27 17 40 0 21 -29 37 -9 30 36 -10 59 5 71 57 47z m-374 -13 c61 -32 62
-71 3 -78 -39 -4 -35 -32 5 -36 30 -3 32 -7 39 -48 9 -64 -18 -93 -57 -58 -23
20 -41 10 -33 -20 6 -26 -16 -49 -43 -44 -13 2 -20 21 -30 88 -12 74 -12 90 2
126 18 47 49 84 71 84 8 0 27 -6 43 -14z m486 -19 c10 -8 15 -19 11 -25 -9
-14 -46 -16 -46 -3 0 5 -3 16 -6 25 -8 20 15 21 41 3z m65 -24 c0 -7 -4 -13
-10 -13 -5 0 -10 12 -10 28 0 21 2 24 10 12 5 -8 10 -21 10 -27z m-60 -53 c0
-5 -11 -10 -25 -10 -14 0 -25 5 -25 10 0 6 11 10 25 10 14 0 25 -4 25 -10z
m74 -12 c9 -12 14 -24 12 -26 -7 -7 -46 23 -46 35 0 20 17 15 34 -9z m-80 -37
c4 -5 2 -20 -3 -33 -7 -16 -10 -18 -10 -6 -1 9 -4 23 -7 32 -6 17 11 23 20 7z
m-74 -16 c0 -18 -43 -115 -51 -115 -11 0 -6 24 20 83 13 31 31 50 31 32z m155
-4 c16 -6 19 -16 17 -57 -4 -75 -10 -86 -40 -82 -26 3 -27 5 -24 58 5 90 9 96
47 81z m-785 -11 c0 -5 -4 -10 -9 -10 -5 0 -18 -3 -28 -7 -16 -6 -16 -5 -4 10
15 19 41 23 41 7z m-23 -46 c-3 -3 -12 -4 -19 -1 -8 3 -5 6 6 6 11 1 17 -2 13
-5z m713 -60 c0 -2 -11 -4 -25 -4 -28 0 -32 18 -14 52 11 20 12 20 25 -12 8
-18 14 -34 14 -36z m-720 24 c-2 -31 -43 -126 -59 -136 -21 -14 -21 -13 -21
50 0 57 3 66 23 76 20 10 57 16 57 10z m53 -100 c-2 -5 -11 -8 -19 -8 -15 0
-17 12 -7 49 l6 23 12 -28 c7 -16 10 -32 8 -36z m543 36 c-4 -9 -9 -15 -11
-12 -3 3 -3 13 1 22 4 9 9 15 11 12 3 -3 3 -13 -1 -22z m114 -14 c0 -20 -22
-26 -54 -14 -24 9 -6 34 25 34 22 0 29 -5 29 -20z m-540 -5 c0 -8 -4 -15 -10
-15 -5 0 -7 7 -4 15 4 8 8 15 10 15 2 0 4 -7 4 -15z m630 -27 c0 -11 -8 -18
-20 -18 -23 0 -35 22 -26 45 5 13 9 13 26 3 11 -7 20 -21 20 -30z m60 -48 c0
-19 0 -62 0 -95 0 -73 -8 -121 -27 -158 -20 -40 -27 -27 -12 24 11 39 19 135
22 251 1 23 4 33 9 25 4 -6 8 -28 8 -47z m-191 29 c31 -11 32 -13 26 -53 -10
-56 -11 -58 -53 -50 -46 8 -48 10 -56 57 -6 32 -5 37 13 37 11 0 23 5 26 10 8
12 5 12 44 -1z m-519 -19 c0 -21 -16 -26 -39 -11 -18 11 -5 31 20 31 12 0 19
-7 19 -20z m-92 -2 c-6 -18 -58 -30 -58 -13 0 15 15 23 43 24 10 1 17 -4 15
-11z m473 -30 c5 -34 4 -37 -23 -40 -32 -5 -37 12 -16 57 15 34 32 27 39 -17z
m-581 6 c0 -8 -4 -12 -10 -9 -5 3 -10 10 -10 16 0 5 5 9 10 9 6 0 10 -7 10
-16z m850 4 c0 -7 -5 -30 -11 -50 -7 -27 -16 -38 -29 -38 -26 0 -31 13 -24 59
6 37 9 41 35 41 17 0 29 -5 29 -12z m-765 -60 c-14 -64 -23 -78 -50 -78 -23 0
-25 3 -20 23 4 12 11 26 16 32 5 5 9 17 9 26 0 15 13 24 43 28 5 0 5 -14 2
-31z m105 -12 c0 -57 -8 -76 -30 -76 -49 0 -50 8 -24 108 2 6 15 12 29 12 23
0 25 -4 25 -44z m400 -21 c0 -9 -9 -15 -25 -15 -14 0 -25 -4 -25 -9 0 -5 11
-12 25 -15 21 -5 25 -12 25 -44 0 -48 -8 -59 -45 -63 l-30 -4 4 75 c2 41 5 78
8 83 8 14 63 8 63 -8z m134 -13 c2 -4 1 -14 -4 -21 -6 -11 -13 -9 -31 8 l-23
21 27 0 c14 0 28 -4 31 -8z m76 -27 c-7 -8 -16 -15 -21 -15 -5 0 -9 7 -9 15 0
9 9 15 21 15 18 0 19 -2 9 -15z m-750 -45 c0 -5 -9 -10 -20 -10 -11 0 -20 5
-20 10 0 6 9 10 20 10 11 0 20 -4 20 -10z m110 -10 c22 -7 21 -8 -12 -9 -21
-1 -38 4 -38 9 0 11 14 11 50 0z m236 -12 c35 -2 64 -7 64 -12 0 -10 -196 -1
-224 10 -33 13 -5 21 44 13 29 -4 80 -9 116 -11z m297 -11 c9 -4 17 -15 17
-26 0 -17 -5 -19 -37 -14 -50 7 -56 15 -42 47 11 23 14 24 28 13 9 -8 24 -17
34 -20z m133 -43 c-5 -14 -47 -20 -58 -8 -13 12 5 41 30 50 23 8 28 7 30 -9 2
-10 1 -25 -2 -33z m-774 6 c6 -37 -5 -39 -20 -5 -15 33 -15 35 2 35 8 0 16
-13 18 -30z m298 4 c110 -9 110 -9 110 -55 0 -55 32 -115 67 -124 47 -13 165
-14 218 -2 28 6 64 21 82 34 17 13 40 23 50 23 45 0 76 -129 53 -217 -6 -27
-25 -76 -41 -110 -34 -74 -56 -81 -88 -28 -11 19 -25 35 -31 35 -19 0 -10 -32
22 -72 l32 -41 -35 -29 c-19 -16 -41 -35 -50 -43 -9 -8 -21 -15 -27 -15 -15 0
-32 33 -32 64 0 52 -19 24 -22 -31 l-3 -58 -42 -3 c-53 -4 -93 30 -93 78 0 42
68 240 91 266 20 21 25 44 11 44 -5 0 -28 -10 -53 -22 -82 -42 -223 -23 -304
39 -56 43 -85 78 -96 114 -10 33 -9 38 15 62 14 14 26 33 26 41 0 8 5 27 10
41 9 23 15 26 38 21 15 -4 56 -9 92 -12z m-178 -23 c-3 -34 -19 -50 -42 -44
-14 4 -20 14 -20 32 0 35 8 43 40 39 20 -2 24 -8 22 -27z m398 -15 c0 -9 -8
-12 -25 -8 -14 2 -25 8 -25 13 0 5 11 9 25 9 14 0 25 -6 25 -14z m511 -18 c34
-18 64 -39 67 -46 4 -14 -111 -72 -143 -72 -11 0 -31 7 -44 16 -21 15 -23 22
-16 68 10 78 37 85 136 34z m-380 12 c21 -12 25 -35 8 -46 -20 -12 -89 17 -89
38 0 13 8 18 31 18 17 0 39 -5 50 -10z m104 -20 c3 -5 2 -10 -4 -10 -5 0 -16
-3 -25 -6 -11 -4 -16 -1 -16 10 0 18 35 22 45 6z m55 6 c0 -3 -4 -8 -10 -11
-5 -3 -10 -1 -10 4 0 6 5 11 10 11 6 0 10 -2 10 -4z m-296 -32 c20 -19 21 -44
2 -44 -19 0 -46 27 -46 46 0 19 25 18 44 -2z m106 -34 c12 -8 9 -10 -12 -10
-16 0 -28 5 -28 10 0 13 20 13 40 0z m-451 -238 c28 -15 31 -15 49 1 21 20 45
22 73 6 26 -14 156 -20 186 -8 13 5 23 7 23 5 0 -3 -16 -37 -35 -77 -19 -40
-38 -88 -41 -106 l-6 -33 -72 -1 c-39 0 -87 -1 -106 -1 -19 -1 -72 0 -117 0
-80 2 -83 3 -83 26 0 13 9 35 21 50 18 23 18 26 4 26 -11 0 -25 -19 -38 -50
l-21 -51 -66 3 -65 3 1 38 c1 38 27 77 51 77 7 0 13 5 13 11 0 19 -43 4 -62
-22 -11 -15 -23 -42 -27 -60 -7 -33 -8 -34 -56 -32 -70 2 -95 18 -95 61 0 28
8 42 43 73 23 22 53 42 67 46 14 3 30 10 36 14 39 31 270 32 323 1z"/>
<path d="M3030 2877 c0 -9 -9 -12 -27 -10 -23 4 -39 -7 -93 -61 -35 -36 -69
-66 -75 -66 -14 0 -83 -73 -127 -135 -73 -103 -86 -146 -95 -306 -5 -94 -4
-95 24 -126 27 -29 33 -31 78 -25 60 6 126 38 191 92 27 22 52 40 56 40 13 0
95 115 107 150 6 20 10 65 10 100 -1 36 3 96 8 133 8 58 7 74 -9 108 -10 23
-18 59 -18 80 0 28 -4 39 -15 39 -8 0 -15 -6 -15 -13z m-70 -84 c0 -20 -13
-53 -20 -53 -14 0 -21 32 -9 46 12 15 29 19 29 7z m44 -106 c-7 -18 -24 -23
-24 -8 0 22 13 42 22 33 5 -5 6 -16 2 -25z m-194 -97 c-17 -33 -35 -60 -40
-60 -6 0 3 27 20 60 17 33 35 60 40 60 6 0 -3 -27 -20 -60z m152 38 c-7 -7
-12 -8 -12 -2 0 6 3 14 7 17 3 4 9 5 12 2 2 -3 -1 -11 -7 -17z m28 -41 c0 -39
-24 -77 -39 -62 -7 7 -4 24 9 53 10 23 21 42 25 42 3 0 5 -15 5 -33z m-240
-37 c-6 -12 -14 -19 -17 -17 -2 3 1 15 7 27 6 12 14 19 17 17 2 -3 -1 -15 -7
-27z m86 -38 c-18 -16 -18 -16 -6 6 6 13 14 21 18 18 3 -4 -2 -14 -12 -24z
m-106 -92 c-18 -36 -40 -60 -40 -44 0 17 44 93 52 88 4 -3 -1 -23 -12 -44z
m180 -59 c0 -5 -7 -11 -14 -14 -10 -4 -13 -1 -9 9 6 15 23 19 23 5z m-176 -62
c-24 -40 -45 -50 -37 -17 5 22 43 61 52 53 2 -2 -5 -19 -15 -36z m-44 21 c0
-5 -5 -10 -11 -10 -5 0 -7 5 -4 10 3 6 8 10 11 10 2 0 4 -4 4 -10z m150 -100
c0 -5 -4 -10 -10 -10 -5 0 -10 5 -10 10 0 6 5 10 10 10 6 0 10 -4 10 -10z"/>
<path d="M1490 3041 c-19 -4 -45 -13 -57 -19 -28 -16 -63 -73 -63 -105 0 -79
170 -120 280 -68 27 12 37 25 44 53 13 54 -6 90 -64 122 -48 26 -76 30 -140
17z m130 -107 c0 -8 -4 -12 -10 -9 -5 3 -10 10 -10 16 0 5 5 9 10 9 6 0 10 -7
10 -16z"/>
<path d="M1900 3268 c-80 -9 -112 -20 -98 -34 8 -7 193 12 208 21 13 8 3 25
-13 24 -7 -1 -50 -6 -97 -11z"/>
<path d="M2250 3226 c0 -23 39 -65 86 -92 36 -21 47 -24 59 -14 12 10 13 16 4
26 -6 8 -16 14 -21 14 -6 0 -32 18 -58 40 -50 42 -70 49 -70 26z"/>
<path d="M1767 1784 c-16 -16 -6 -35 16 -32 12 2 22 10 22 18 0 16 -26 25 -38
14z"/>
<path d="M1690 1505 c-10 -12 -10 -18 0 -30 7 -8 18 -15 25 -15 7 0 18 7 25
15 10 12 10 18 0 30 -7 8 -18 15 -25 15 -7 0 -18 -7 -25 -15z"/>
<path d="M1675 1380 c-24 -27 -8 -47 24 -31 17 10 19 15 11 31 -13 25 -13 25
-35 0z"/>
<path d="M2040 3655 c-10 -13 -8 -19 16 -38 35 -28 52 -35 87 -36 35 -1 34 7
-7 52 -36 40 -74 48 -96 22z"/>
</g>
</svg>
